<?xml version="1.0" encoding="UTF-8"?>
<svg width="700pt" height="700pt" version="1.1" viewBox="0 0 700 700" xmlns="http://www.w3.org/2000/svg">
 <g>
  <path fill="#f1f1f1" d="m647.81 112c-5.8516-1.9375-12.242-1.375-17.668 1.5469-5.4258 2.9258-9.4062 7.957-11.004 13.91l-70.559 217.28-3.5859 6.4961v-0.003906c-1.3047 2.1445-2.4297 4.3906-3.3594 6.7227-2.1562 0.31641-4.3438 0.31641-6.4961 0h-211.91c-11.648 0-14.785-1.3438-22.398-15.23l-155.9-315.17c-3.3828-8.1016-9.0703-15.035-16.359-19.934-7.2852-4.8984-15.852-7.5469-24.633-7.6172h-44.801c-8.0039 0-15.398 4.2695-19.398 11.199-4.0039 6.9297-4.0039 15.469 0 22.402 4 6.9297 11.395 11.199 19.398 11.199h44.801l156.8 318.53h-0.003906c6.1445 12.434 15.762 22.82 27.691 29.898 11.926 7.0781 25.652 10.543 39.512 9.9727h201.6-0.003906c11.141 0.92969 22.309-1.4414 32.109-6.8203 9.7969-5.375 17.797-13.523 22.996-23.418l4.2578-7.3906-0.003907-0.003906c0.85156-1.4844 1.5273-3.0625 2.0156-4.7031l71.23-219.74h0.003906c2.1211-5.7578 1.7852-12.133-0.92578-17.637-2.707-5.5039-7.5547-9.6523-13.41-11.484z"/>
  <path fill="#f1f1f1" d="m574.34 504c0 30.93-25.07 56-56 56-30.93 0-56-25.07-56-56s25.07-56 56-56c30.93 0 56 25.07 56 56"/>
  <path fill="#f1f1f1" d="m372.73 504c0 30.93-25.07 56-56 56-30.926 0-56-25.07-56-56s25.074-56 56-56c30.93 0 56 25.07 56 56"/>
  <path fill="#f1f1f1" d="m311.59 217.5c4.1953 4.1719 9.8711 6.5156 15.789 6.5156s11.598-2.3438 15.793-6.5156l74.367-73.918 73.695 73.695c5.7695 4.9375 13.645 6.6172 20.926 4.4648 7.2773-2.1523 12.973-7.8477 15.125-15.129 2.1562-7.2773 0.47266-15.156-4.4648-20.922l-74.145-73.695 73.695-73.695c5.6836-5.6445 7.9219-13.887 5.8789-21.629-2.0469-7.7422-8.0664-13.805-15.793-15.902-7.7266-2.1016-15.988 0.082031-21.668 5.7227l-73.25 73.918-74.367-73.918c-5.7656-4.9375-13.641-6.6211-20.922-4.4648-7.2812 2.1523-12.977 7.8438-15.129 15.125-2.1523 7.2812-0.47266 15.156 4.4688 20.922l73.695 73.922-73.695 73.695c-4.2422 4.207-6.6289 9.9336-6.6289 15.906 0 5.9727 2.3867 11.695 6.6289 15.902z"/>
 </g>
</svg>
