<svg xmlns="http://www.w3.org/2000/svg" width="23" height="25" enable-background="new 0 0 512 512" viewBox="0 0 512 512"><path fill="none" stroke="#000" stroke-linecap="round" stroke-linejoin="round" stroke-miterlimit="2.613" stroke-width="12.47" d="
			M371.455,57.439c110.008,63.446,147.69,204.049,84.162,313.95c-63.479,109.957-204.143,147.622-314.101,84.121
			C31.509,392.064-6.176,251.467,57.352,141.561C120.831,31.609,261.495-6.058,371.455,57.439z"/><path fill="none" stroke="#000" stroke-linecap="round" stroke-linejoin="round" stroke-miterlimit="2.613" stroke-width="12.47" d="M26.495 255.495c58.173 5.352 126.172 27.446 192.601 65.755 66.428 38.309 119.538 86.139 153.244 133.821M486.474 257.455c-58.173-5.352-126.173-27.402-192.601-65.755-66.376-38.304-119.539-86.133-153.241-133.821"/><path fill="none" stroke="#000" stroke-linecap="round" stroke-linejoin="round" stroke-miterlimit="2.613" stroke-width="12.47" d="
			M371.455,57.439c56.893,32.805,51.491,148.502-12.04,258.46c-63.476,109.955-161.053,172.466-217.898,139.611
			c-56.849-32.799-51.491-148.503,12.036-258.459C217.032,87.152,314.609,24.635,371.455,57.439z"/><line x1="371.455" x2="141.517" y1="57.439" y2="455.511" fill="none" stroke="#000" stroke-linecap="round" stroke-linejoin="round" stroke-miterlimit="2.613" stroke-width="12.47"/><line x1="455.617" x2="57.352" y1="371.39" y2="141.561" fill="none" stroke="#000" stroke-linecap="round" stroke-linejoin="round" stroke-miterlimit="2.613" stroke-width="12.47"/><path fill="none" stroke="#000" stroke-linecap="round" stroke-linejoin="round" stroke-miterlimit="10" stroke-width="12.47" d="
			M371.455,57.439c110.008,63.446,147.69,204.049,84.162,313.95c-63.479,109.957-204.143,147.622-314.101,84.121
			C31.509,392.064-6.176,251.467,57.352,141.561C120.831,31.609,261.495-6.058,371.455,57.439z"/><path fill="none" stroke="#000" stroke-linecap="round" stroke-linejoin="round" stroke-miterlimit="10" stroke-width="12.47" d="
			M371.455,57.439c56.893,32.805,51.491,148.502-12.04,258.46c-63.476,109.955-161.053,172.466-217.898,139.611
			c-56.849-32.799-51.491-148.503,12.036-258.459C217.032,87.152,314.609,24.635,371.455,57.439z"/><line x1="371.455" x2="141.517" y1="57.439" y2="455.511" fill="none" stroke="#000" stroke-linecap="round" stroke-linejoin="round" stroke-miterlimit="2.613" stroke-width="12.47"/><line x1="455.617" x2="57.352" y1="371.39" y2="141.561" fill="none" stroke="#000" stroke-linecap="round" stroke-linejoin="round" stroke-miterlimit="2.613" stroke-width="12.47"/><path fill="none" stroke="#000" stroke-linecap="round" stroke-linejoin="round" stroke-miterlimit="2.613" stroke-width="12.47" d="M26.495 255.495c58.173 5.352 126.172 27.446 192.601 65.755 66.428 38.309 119.538 86.139 153.244 133.821M486.474 257.455c-58.173-5.352-126.173-27.402-192.601-65.755-66.376-38.304-119.539-86.133-153.241-133.821"/></svg>