<svg width="216" height="108" viewBox="0 0 216 108" fill="none" xmlns="http://www.w3.org/2000/svg">
<path d="M32 60.5H33.5C36.2614 60.5 38.5 62.7386 38.5 65.5V102.5C38.5 105.261 36.2614 107.5 33.5 107.5H8C5.23858 107.5 3 105.261 3 102.5V65.5C3 62.7386 5.23858 60.5 8 60.5H21.5M32 60.5V52.5M32 60.5H21.5M32 52.5H24M32 52.5V45H24V52.5M21.5 60.5V52.5H24" stroke="black"/>
<path d="M13 80.5L22.5 67L20.5 76H29L16 99L20.5 80.5H13Z" stroke="black"/>
<path d="M6.5 69.5V81.5M6.5 89.5V98" stroke="black"/>
<path d="M30 47V49.5" stroke="black"/>
<g filter="url(#filter0_d_2_32)">
<path d="M45.4728 38.1665C44.9242 30.322 53.8323 29.9529 59.2847 36.1333C50.9651 31.9279 47.3644 31.2995 45.4728 38.1665ZM45.4728 38.1665C46.0214 46.0109 64.4542 55.3285 68.2353 62.6382M68.2353 62.6382C72.0164 69.948 56.968 74.5423 60.2847 75.1333M68.2353 62.6382C71.1518 66.2971 70.3538 68.8918 66.7847 71.4887M60.2847 75.1333C55.123 71.5715 56.8354 65.8253 70.8096 56.4436M60.2847 75.1333C62.9653 73.8511 65.1615 72.6697 66.7847 71.4887M60.2847 75.1333L66.7847 71.4887M70.8096 56.4436C72.2561 62.8983 73.4564 64.8838 76.031 66.6041C80.4514 65.6525 82.7388 64.8277 81.7828 55.6762M70.8096 56.4436C70.8096 56.4436 69.7288 52.6061 74.9149 50.6431M81.7828 55.6762C81.3492 50.1831 80.1011 48.68 74.9149 50.6431M81.7828 55.6762C80.1669 50.8604 78.7084 49.6379 74.9149 50.6431M84.0291 61.8258C87.9107 48.6873 92.5559 37.9244 91.0121 29.9698M91.0121 29.9698C91.0121 29.9698 87.7403 26.1888 84.0291 30.4581C83.3317 31.2604 83.1469 33.319 83.3068 36.1333M91.0121 29.9698C87.2056 27.8093 85.5127 29.1264 83.3068 36.1333M91.1235 74.5707C91.1235 74.5707 83.9975 48.2952 83.3068 36.1333M116.697 53.2348C112.807 52.5262 110.675 53.4146 106.966 57.4238L105.32 62.5511C107.939 65.7773 110.638 64.7835 117.116 59.2202L117.814 69.1958L116.697 53.2348ZM116.697 53.2348L123.272 39.7433C123.491 32.4991 122.555 29.6775 117.946 28.0864C115.529 32.8795 114.919 27.7969 115.616 37.7725C116.314 47.7482 116.275 47.1964 116.697 53.2348ZM125.428 27.5632L127.172 52.5023M127.904 62.9768L127.172 52.5023M127.172 52.5023L134.769 46.4577M127.172 52.5023L140.883 55.0521M143.248 45.8647L144.364 61.8258M142.725 38.383L139.976 42.0838M148.236 45.516C146.696 52.8682 147.953 55.5502 151.706 59.3075C156.54 58.1328 157.511 55.885 157.598 50.3748C159.121 62.0126 159.505 68.5702 159.69 80.3017C155.352 81.1307 153.641 79.8826 152.648 72.7746C155.977 62.3171 158.63 59.7144 164.176 58.4355M163.199 44.4696L165.684 62.0892M168.17 79.7087L165.684 62.0892M165.684 62.0892C169.071 51.5499 171.143 47.5575 175.31 45.6277C179.823 45.9676 180.06 48.4601 178.466 54.9301C175.914 57.737 172.542 59.3018 165.684 62.0892ZM191.26 51.5294C189.974 56.5357 188.574 58.7255 182.272 59.175C181.643 50.5802 183.431 47.3251 190.772 44.5464L191.26 51.5294ZM191.26 51.5294L191.609 56.5172L197.919 53.5699M199.61 41.9235L200.23 50.7769M200.849 59.6303L200.23 50.7769M200.23 50.7769C203.699 43.878 205.783 42.2471 209.726 43.2211M94.0082 51.3128C93.0917 58.5807 94.3762 61.2735 97.9774 65.0694C100.617 62.9878 101.742 60.8416 102.732 54.2114C100.583 50.4748 98.6093 49.9717 94.0082 51.3128Z" stroke="black" stroke-width="3" stroke-miterlimit="1.12253" stroke-linecap="round" stroke-linejoin="round" shape-rendering="crispEdges"/>
</g>
<g filter="url(#filter1_d_2_32)">
<path d="M17.295 18.3185C17.3955 11.2371 15.5384 9.9631 9.29503 11.8185M9.29503 11.8185C4.92102 14.6793 4.15729 16.656 5.79503 20.8185C11.3829 21.3117 12.9551 22.1417 13.795 24.3185C12.6646 27.5359 13.7341 29.6135 22.795 33.8185L25.295 39.8185C26.1345 36.0597 29.4114 34.7264 35 31.4748C40.5886 28.2233 33.295 24.3185 33.295 24.3185M9.29503 11.8185C9.8094 8.0462 11.0827 6.40589 17.295 4.47484C21.5998 1.24227 24.122 0.472267 28.795 1.31849C34.8881 6.32637 33.973 9.02716 31.295 13.8185M33.295 24.3185C29.1945 25.5619 28.2951 30.3185 22.795 24.3185C17.295 18.3185 25.295 18.3185 25.295 18.3185M33.295 24.3185C34.0009 20.2754 37.295 13.8185 31.295 13.8185M31.295 13.8185C25.295 13.8185 25.295 8.81849 25.295 8.81849" stroke="black" stroke-linecap="round" stroke-linejoin="round" shape-rendering="crispEdges"/>
</g>
<defs>
<filter id="filter0_d_2_32" x="39.9487" y="26.0632" width="175.277" height="63.9622" filterUnits="userSpaceOnUse" color-interpolation-filters="sRGB">
<feFlood flood-opacity="0" result="BackgroundImageFix"/>
<feColorMatrix in="SourceAlpha" type="matrix" values="0 0 0 0 0 0 0 0 0 0 0 0 0 0 0 0 0 0 127 0" result="hardAlpha"/>
<feOffset dy="4"/>
<feGaussianBlur stdDeviation="2"/>
<feComposite in2="hardAlpha" operator="out"/>
<feColorMatrix type="matrix" values="0 0 0 0 0 0 0 0 0 0 0 0 0 0 0 0 0 0 0.25 0"/>
<feBlend mode="normal" in2="BackgroundImageFix" result="effect1_dropShadow_2_32"/>
<feBlend mode="normal" in="SourceGraphic" in2="effect1_dropShadow_2_32" result="shape"/>
</filter>
<filter id="filter1_d_2_32" x="0.499924" y="0.5" width="41.1078" height="47.8185" filterUnits="userSpaceOnUse" color-interpolation-filters="sRGB">
<feFlood flood-opacity="0" result="BackgroundImageFix"/>
<feColorMatrix in="SourceAlpha" type="matrix" values="0 0 0 0 0 0 0 0 0 0 0 0 0 0 0 0 0 0 127 0" result="hardAlpha"/>
<feOffset dy="4"/>
<feGaussianBlur stdDeviation="2"/>
<feComposite in2="hardAlpha" operator="out"/>
<feColorMatrix type="matrix" values="0 0 0 0 0 0 0 0 0 0 0 0 0 0 0 0 0 0 0.25 0"/>
<feBlend mode="normal" in2="BackgroundImageFix" result="effect1_dropShadow_2_32"/>
<feBlend mode="normal" in="SourceGraphic" in2="effect1_dropShadow_2_32" result="shape"/>
</filter>
</defs>
</svg>
