<svg width="40" height="40" viewBox="0 0 40 40" fill="none" xmlns="http://www.w3.org/2000/svg">
<path d="M40 20C40 31.0457 31.0457 40 20 40C8.9543 40 0 31.0457 0 20C0 8.9543 8.9543 0 20 0C31.0457 0 40 8.9543 40 20Z" fill="black"/>
<path d="M14.5469 7C10.3906 7 7 10.3906 7 14.5469V25.4609C7 29.6094 10.3906 33 14.5469 33H25.4609C29.6094 33 33 29.6094 33 25.4531V14.5469C33 10.3906 29.6094 7 25.4531 7H14.5469ZM14.5469 9H25.4531C28.5313 9 31 11.4688 31 14.5469V25.4531C31 28.5313 28.5312 31 25.4609 31H14.5469C11.4688 31 9 28.5312 9 25.4609V14.5469C9 11.4688 11.4688 9 14.5469 9ZM28 11C27.4453 11 27 11.4453 27 12C27 12.5547 27.4453 13 28 13C28.5547 13 29 12.5547 29 12C29 11.4453 28.5547 11 28 11ZM20 13C16.1484 13 13 16.1484 13 20C13 23.8516 16.1484 27 20 27C23.8516 27 27 23.8516 27 20C27 16.1484 23.8516 13 20 13ZM20 15C22.7734 15 25 17.2266 25 20C25 22.7734 22.7734 25 20 25C17.2266 25 15 22.7734 15 20C15 17.2266 17.2266 15 20 15Z" fill="white"/>
</svg>
