<svg width="253" height="127" viewBox="0 0 253 127" fill="none" xmlns="http://www.w3.org/2000/svg">
<path d="M0 89.9934C0 40.2914 40.2914 0 89.9934 0H177.643C219.262 0 253 33.7384 253 75.3568C253 103.879 229.879 127 201.357 127H37.0066C16.5684 127 0 110.432 0 89.9934Z" fill="url(#paint0_linear_6_9)"/>
<path d="M68.5 76.0587V113.5C68.5 116.261 66.2614 118.5 63.5 118.5H38C35.2386 118.5 33 116.261 33 113.5V76.0587C33 73.2972 35.2386 71.0587 38 71.0587H51.5V62.9836H54V55.4131H62V62.9836V71.0587H63.5C66.2614 71.0587 68.5 73.2972 68.5 76.0587Z" fill="url(#paint1_linear_6_9)"/>
<path d="M62 71.0587H63.5C66.2614 71.0587 68.5 73.2972 68.5 76.0587V113.5C68.5 116.261 66.2614 118.5 63.5 118.5H38C35.2386 118.5 33 116.261 33 113.5V76.0587C33 73.2972 35.2386 71.0587 38 71.0587H51.5M62 71.0587V62.9836M62 71.0587H51.5M62 62.9836H54M62 62.9836V55.4131H54V62.9836M51.5 71.0587V62.9836H54" stroke="black"/>
<path d="M43 91.2465L52.5 77.6197L50.5 86.7042H59L46 109.92L50.5 91.2465H43Z" fill="url(#paint2_linear_6_9)" stroke="black"/>
<path d="M36.5 80.1432V92.2559M36.5 100.331V108.911" stroke="black"/>
<path d="M60 57.4319V59.9554" stroke="black"/>
<g filter="url(#filter0_d_6_9)">
<path d="M75.4728 48.5154C74.9242 40.5973 83.8323 40.2247 89.2847 46.4632C80.9651 42.2183 77.3644 41.584 75.4728 48.5154C75.952 55.4312 90.0741 63.4813 96.1611 70.3247C97.5284 69.2592 99.0745 68.14 100.81 66.9642C100.81 66.9642 99.7288 63.0907 104.915 61.1092C110.101 59.1277 111.349 60.6449 111.783 66.1896C112.739 75.427 110.451 76.2595 106.031 77.2201C103.456 75.4837 102.256 73.4795 100.81 66.9642C99.0745 68.14 97.5284 69.2592 96.1611 70.3247C97.0433 71.3165 97.7567 72.283 98.2353 73.217C101.152 76.9102 100.354 79.5293 96.7847 82.1505C95.1615 83.3426 92.9653 84.5352 90.2847 85.8294C89.9117 85.7623 89.771 85.6441 89.8096 85.4767C85.8309 82.3226 86.8692 77.5652 96.1611 70.3247C90.0741 63.4813 75.952 55.4312 75.4728 48.5154Z" fill="url(#paint3_linear_6_9)" shape-rendering="crispEdges"/>
<path d="M121.012 40.2418C122.262 46.741 119.456 55.0974 116.283 65.0794C114.846 58.3239 113.578 51.2916 113.307 46.4632C113.147 43.6224 113.332 41.5445 114.029 40.7347C117.74 36.4254 121.012 40.2418 121.012 40.2418Z" fill="url(#paint4_linear_6_9)" shape-rendering="crispEdges"/>
<path d="M127.977 75.671C124.376 71.8394 123.092 69.1213 124.008 61.7852C128.609 60.4316 130.583 60.9394 132.732 64.711C131.742 71.4035 130.617 73.5699 127.977 75.671Z" fill="url(#paint5_linear_6_9)" shape-rendering="crispEdges"/>
<path d="M136.966 67.9536C140.675 63.9068 142.807 63.01 146.697 63.7252L145.616 48.1178C144.919 38.0485 145.529 43.1788 147.946 38.3407C152.555 39.9468 153.491 42.7949 153.272 50.107L146.697 63.7252L147.116 69.7668C140.638 75.3825 137.939 76.3856 135.32 73.1291L136.966 67.9536Z" fill="url(#paint6_linear_6_9)" shape-rendering="crispEdges"/>
<path d="M189.69 91.0463C189.569 83.2459 189.36 77.7117 188.797 71.4851C186.458 73.5198 184.679 77.0087 182.648 83.4485C183.641 90.6233 185.352 91.8831 189.69 91.0463Z" fill="url(#paint7_linear_6_9)" shape-rendering="crispEdges"/>
<path d="M205.31 56.0467C201.143 57.9946 199.071 62.0245 195.684 72.6628C202.542 69.8492 205.914 68.2697 208.466 65.4365C210.06 58.9057 209.823 56.3898 205.31 56.0467Z" fill="url(#paint8_linear_6_9)" shape-rendering="crispEdges"/>
<path d="M212.272 69.7213C211.643 61.0457 213.431 57.7601 220.772 54.9553L221.26 62.0038C219.974 67.0571 218.574 69.2675 212.272 69.7213Z" fill="url(#paint9_linear_6_9)" shape-rendering="crispEdges"/>
<path d="M75.4728 48.5154C74.9242 40.5973 83.8323 40.2247 89.2847 46.4632C80.9651 42.2183 77.3644 41.584 75.4728 48.5154ZM75.4728 48.5154C76.0214 56.4336 94.4542 65.8386 98.2353 73.217M98.2353 73.217C102.016 80.5954 86.968 85.2328 90.2847 85.8294M98.2353 73.217C101.152 76.9102 100.354 79.5293 96.7847 82.1505M90.2847 85.8294C85.123 82.2342 86.8354 76.4339 100.81 66.9642M90.2847 85.8294C92.9653 84.5352 95.1615 83.3426 96.7847 82.1505M90.2847 85.8294L96.7847 82.1505M100.81 66.9642C102.256 73.4795 103.456 75.4837 106.031 77.2201C110.451 76.2595 112.739 75.427 111.783 66.1896M100.81 66.9642C100.81 66.9642 99.7288 63.0907 104.915 61.1092M111.783 66.1896C111.349 60.6449 110.101 59.1277 104.915 61.1092M111.783 66.1896C110.167 61.3286 108.708 60.0946 104.915 61.1092M114.029 72.3969C117.911 59.135 122.556 48.2712 121.012 40.2418M121.012 40.2418C121.012 40.2418 117.74 36.4254 114.029 40.7347C113.332 41.5445 113.147 43.6224 113.307 46.4632M121.012 40.2418C117.206 38.0611 115.513 39.3905 113.307 46.4632M121.124 85.2615C121.124 85.2615 113.997 58.7392 113.307 46.4632M146.698 63.7252C142.807 63.01 140.675 63.9068 136.966 67.9536L135.32 73.1291C137.939 76.3856 140.638 75.3825 147.116 69.7668L147.814 79.8361L146.698 63.7252ZM146.698 63.7252L153.272 50.107C153.491 42.7949 152.555 39.9468 147.946 38.3407C145.529 43.1788 144.919 38.0485 145.616 48.1178C146.314 58.1871 146.275 57.6302 146.698 63.7252ZM155.428 37.8126L157.172 62.9859M157.904 73.5587L157.172 62.9859M157.172 62.9859L164.769 56.8845M157.172 62.9859L170.883 65.5596M173.248 56.286L174.364 72.3969M172.725 48.734L169.976 52.4695M178.236 55.9339C176.696 63.3552 177.953 66.0624 181.706 69.855C186.54 68.6693 187.511 66.4003 187.598 60.8384C189.121 72.5855 189.505 79.2047 189.69 91.0463C185.352 91.8831 183.641 90.6233 182.648 83.4485C185.977 72.8928 188.63 70.2657 194.176 68.9748M193.199 54.8778L195.684 72.6628M198.17 90.4478L195.684 72.6628M195.684 72.6628C199.071 62.0245 201.143 57.9946 205.31 56.0467C209.823 56.3898 210.06 58.9057 208.466 65.4365C205.914 68.2697 202.542 69.8492 195.684 72.6628ZM221.26 62.0038C219.974 67.0571 218.574 69.2675 212.272 69.7213C211.643 61.0457 213.431 57.7601 220.772 54.9553L221.26 62.0038ZM221.26 62.0038L221.609 67.0385L227.919 64.0635M229.61 52.3078L230.23 61.2443M230.849 70.1808L230.23 61.2443M230.23 61.2443C233.699 54.2806 235.783 52.6344 239.726 53.6175M124.008 61.7852C123.092 69.1213 124.376 71.8394 127.977 75.671C130.617 73.5699 131.742 71.4035 132.732 64.711C130.583 60.9394 128.609 60.4316 124.008 61.7852Z" stroke="black" stroke-width="2" stroke-linecap="round" stroke-linejoin="round" shape-rendering="crispEdges"/>
</g>
<path d="M35.795 31.0046C34.1573 26.803 34.921 24.8077 39.295 21.9201C39.8094 18.1124 41.0827 16.4566 47.295 14.5075C51.5998 11.2445 54.122 10.4673 58.795 11.3215C64.8881 16.3764 63.973 19.1025 61.295 23.9389C67.295 23.9389 64.0009 30.4564 63.295 34.5374C63.295 34.5374 70.5886 38.4789 65 41.761C59.4114 45.0431 56.1345 46.3889 55.295 50.183L52.795 44.1267C43.7341 39.8821 42.6646 37.785 43.795 34.5374C42.9551 32.3403 41.3829 31.5025 35.795 31.0046Z" fill="url(#paint10_linear_6_9)"/>
<path d="M47.295 28.4811C47.3955 21.3333 45.5384 20.0473 39.295 21.9201M39.295 21.9201C34.921 24.8077 34.1573 26.803 35.795 31.0046C41.3829 31.5025 42.9551 32.3403 43.795 34.5374C42.6646 37.785 43.7341 39.8821 52.795 44.1267L55.295 50.183C56.1345 46.3889 59.4114 45.0431 65 41.761C70.5886 38.4789 63.295 34.5374 63.295 34.5374M39.295 21.9201C39.8094 18.1124 41.0827 16.4566 47.295 14.5075C51.5998 11.2445 54.122 10.4673 58.795 11.3215C64.8881 16.3764 63.973 19.1025 61.295 23.9389M63.295 34.5374C59.1945 35.7926 58.2951 40.5938 52.795 34.5374C47.295 28.4811 55.295 28.4811 55.295 28.4811M63.295 34.5374C64.0009 30.4564 67.295 23.9389 61.295 23.9389M61.295 23.9389C55.295 23.9389 55.295 18.8919 55.295 18.8919" stroke="black" stroke-linecap="round" stroke-linejoin="round"/>
<defs>
<filter id="filter0_d_6_9" x="70.4488" y="36.8125" width="174.277" height="63.4598" filterUnits="userSpaceOnUse" color-interpolation-filters="sRGB">
<feFlood flood-opacity="0" result="BackgroundImageFix"/>
<feColorMatrix in="SourceAlpha" type="matrix" values="0 0 0 0 0 0 0 0 0 0 0 0 0 0 0 0 0 0 127 0" result="hardAlpha"/>
<feOffset dy="4"/>
<feGaussianBlur stdDeviation="2"/>
<feComposite in2="hardAlpha" operator="out"/>
<feColorMatrix type="matrix" values="0 0 0 0 0 0 0 0 0 0 0 0 0 0 0 0 0 0 0.25 0"/>
<feBlend mode="normal" in2="BackgroundImageFix" result="effect1_dropShadow_6_9"/>
<feBlend mode="normal" in="SourceGraphic" in2="effect1_dropShadow_6_9" result="shape"/>
</filter>
<linearGradient id="paint0_linear_6_9" x1="126.5" y1="0" x2="126.5" y2="127" gradientUnits="userSpaceOnUse">
<stop stop-color="#FFDCF5" stop-opacity="0"/>
<stop offset="1" stop-color="#FFDCF5"/>
</linearGradient>
<linearGradient id="paint1_linear_6_9" x1="50.75" y1="55.4131" x2="50.75" y2="118.5" gradientUnits="userSpaceOnUse">
<stop stop-color="#FFDCF5" stop-opacity="0"/>
<stop offset="1" stop-color="#FFDCF5"/>
</linearGradient>
<linearGradient id="paint2_linear_6_9" x1="51" y1="77.6197" x2="51" y2="109.92" gradientUnits="userSpaceOnUse">
<stop stop-color="#FFDCF5" stop-opacity="0"/>
<stop offset="1" stop-color="#FFDCF5"/>
</linearGradient>
<linearGradient id="paint3_linear_6_9" x1="156.551" y1="35.9345" x2="160.593" y2="93.2018" gradientUnits="userSpaceOnUse">
<stop stop-color="#FFDCF5" stop-opacity="0"/>
<stop offset="1" stop-color="#FFDCF5"/>
</linearGradient>
<linearGradient id="paint4_linear_6_9" x1="156.551" y1="35.9345" x2="160.593" y2="93.2018" gradientUnits="userSpaceOnUse">
<stop stop-color="#FFDCF5" stop-opacity="0"/>
<stop offset="1" stop-color="#FFDCF5"/>
</linearGradient>
<linearGradient id="paint5_linear_6_9" x1="156.551" y1="35.9345" x2="160.593" y2="93.2018" gradientUnits="userSpaceOnUse">
<stop stop-color="#FFDCF5" stop-opacity="0"/>
<stop offset="1" stop-color="#FFDCF5"/>
</linearGradient>
<linearGradient id="paint6_linear_6_9" x1="156.551" y1="35.9345" x2="160.593" y2="93.2018" gradientUnits="userSpaceOnUse">
<stop stop-color="#FFDCF5" stop-opacity="0"/>
<stop offset="1" stop-color="#FFDCF5"/>
</linearGradient>
<linearGradient id="paint7_linear_6_9" x1="156.551" y1="35.9345" x2="160.593" y2="93.2018" gradientUnits="userSpaceOnUse">
<stop stop-color="#FFDCF5" stop-opacity="0"/>
<stop offset="1" stop-color="#FFDCF5"/>
</linearGradient>
<linearGradient id="paint8_linear_6_9" x1="156.551" y1="35.9345" x2="160.593" y2="93.2018" gradientUnits="userSpaceOnUse">
<stop stop-color="#FFDCF5" stop-opacity="0"/>
<stop offset="1" stop-color="#FFDCF5"/>
</linearGradient>
<linearGradient id="paint9_linear_6_9" x1="156.551" y1="35.9345" x2="160.593" y2="93.2018" gradientUnits="userSpaceOnUse">
<stop stop-color="#FFDCF5" stop-opacity="0"/>
<stop offset="1" stop-color="#FFDCF5"/>
</linearGradient>
<linearGradient id="paint10_linear_6_9" x1="51.0538" y1="11" x2="51.0538" y2="50.183" gradientUnits="userSpaceOnUse">
<stop stop-color="#FFDCF5" stop-opacity="0"/>
<stop offset="1" stop-color="#FFDCF5"/>
</linearGradient>
</defs>
</svg>
