<svg width="95" height="55" viewBox="0 0 95 55" fill="none" xmlns="http://www.w3.org/2000/svg">
<path fill-rule="evenodd" clip-rule="evenodd" d="M42.4453 17.749C42.4453 17.749 42.4453 17.749 44.1553 17.749C44.7838 17.749 45.0907 18.0612 45.0907 18.7747C45.0907 18.7747 45.0907 18.7747 45.0907 21.272C45.0907 21.272 45.0907 21.272 48.4376 21.272C48.4376 21.272 48.4376 21.272 48.4376 18.7747C48.4376 18.0612 48.7445 17.749 49.4461 17.749C49.4461 17.749 49.4461 17.749 51.083 17.749C51.083 17.749 51.083 17.749 51.083 19.399C51.083 19.399 51.083 19.399 50.3815 19.399L50.3084 19.4733C50.3084 19.4733 50.3084 19.4733 50.3084 26.5193C50.3084 26.5193 50.3084 26.5193 48.4376 26.5193C48.4376 26.5193 48.4376 26.5193 48.4376 22.9963C48.4376 22.9963 48.4376 22.9963 45.0907 22.9963C45.0907 22.9963 45.0907 22.9963 45.0907 26.5193C45.0907 26.5193 45.0907 26.5193 43.2199 26.5193C43.2199 26.5193 43.2199 26.5193 43.2199 19.4733C43.2199 19.4733 43.2199 19.399 43.1469 19.399C43.1469 19.399 43.1469 19.399 42.4453 19.399C42.4453 19.399 42.4453 19.399 42.4453 17.749Z" fill="#ED1C24"/>
<path fill-rule="evenodd" clip-rule="evenodd" d="M55.979 17.5996H56.0229V19.4131L55.979 19.3983C54.576 19.3983 53.4944 20.5726 53.4944 22.0591C53.4944 23.6199 54.576 24.8834 55.979 24.8834L56.0229 24.8685V26.6672L55.979 26.682C53.4944 26.682 51.4629 24.6456 51.4629 22.0591C51.4629 19.5618 53.4944 17.5996 55.979 17.5996Z" fill="#ED1C24"/>
<path fill-rule="evenodd" clip-rule="evenodd" d="M56.0215 17.5996L56.8838 17.6888C58.9446 18.0901 60.4938 19.8739 60.4938 22.0591C60.4938 24.3185 58.9446 26.1618 56.8838 26.578L56.0215 26.6672V24.8685L56.9715 24.6604C57.8923 24.2293 58.5499 23.2334 58.5499 22.0591C58.5499 20.9442 57.8923 20.0077 56.9715 19.6064L56.0215 19.4131V17.5996Z" fill="#ED1C24"/>
<path fill-rule="evenodd" clip-rule="evenodd" d="M60.873 17.749C60.873 17.749 60.873 17.749 63.4892 17.749H64.7315V19.399H64.6146C64.4538 19.399 64.1469 19.399 63.5184 19.399C63.5184 19.399 63.5184 19.399 63.5184 21.1977C63.5184 21.1977 63.5184 21.1977 64.0446 21.1977H64.7315V22.7585H64.3369C64.1323 22.7585 63.8692 22.7585 63.5184 22.7585C63.5184 22.7585 63.5184 22.7585 63.5184 24.7206C63.5184 24.795 63.5184 24.795 63.6061 24.795C63.6061 24.795 63.6061 24.795 64.1615 24.795H64.7315V26.5193H64.5707C64.2784 26.5193 63.723 26.5193 62.5977 26.5193C61.9692 26.5193 61.6623 26.2071 61.6623 25.5085V19.399C61.6623 19.399 61.6623 19.399 60.873 19.399C60.873 19.399 60.873 19.399 60.873 17.749Z" fill="#ED1C24"/>
<path fill-rule="evenodd" clip-rule="evenodd" d="M64.7324 17.749H64.7617C66.4863 17.749 67.4947 18.7004 67.4947 20.1125C67.4947 20.9598 67.1001 21.5098 66.7201 21.9112C67.4217 22.2233 67.8747 22.9963 67.8747 23.8585C67.8747 25.5085 66.6324 26.5193 64.8493 26.5193C64.8493 26.5193 64.8493 26.5193 64.8201 26.5193H64.7324V24.795H64.9224C65.5509 24.795 65.9309 24.4085 65.9309 23.7842C65.9309 23.1598 65.5509 22.7585 64.9224 22.7585C64.9224 22.7585 64.9224 22.7585 64.747 22.7585H64.7324V21.1977H64.7617C65.317 21.1977 65.624 20.8112 65.624 20.2612C65.624 19.7112 65.317 19.399 64.7617 19.399C64.7617 19.399 64.7617 19.399 64.747 19.399H64.7324V17.749Z" fill="#ED1C24"/>
<path fill-rule="evenodd" clip-rule="evenodd" d="M71.4549 17.749C71.4549 17.749 71.4549 17.749 72.2441 17.749H72.3903V20.2612C72.3172 20.4247 72.2295 20.6477 72.2295 20.8855C72.2295 20.8855 72.2295 20.8855 71.6156 22.6842C71.6156 22.6842 71.6156 22.6842 72.2733 22.6842H72.3903V24.3342H71.9664C71.7326 24.3342 71.4549 24.3342 71.148 24.3342C71.148 24.3342 71.148 24.3342 70.6072 25.7463C70.4464 26.2815 70.1395 26.5193 69.511 26.5193C69.511 26.5193 69.511 26.5193 68.3418 26.5193C68.3418 26.5193 68.3418 26.5193 68.3418 24.795C68.3418 24.795 68.3418 24.795 68.7364 24.795C68.8972 24.795 68.8972 24.795 68.9703 24.7206C68.9703 24.7206 68.9703 24.7206 71.4549 17.749Z" fill="#ED1C24"/>
<path fill-rule="evenodd" clip-rule="evenodd" d="M72.3887 17.749H73.3241C73.3241 17.749 73.3241 17.749 75.8087 24.7206C75.8817 24.795 75.8817 24.795 76.0425 24.795C76.0425 24.795 76.0425 24.795 76.3494 24.795C76.3494 24.795 76.3494 24.795 76.3494 26.5193C76.3494 26.5193 76.3494 26.5193 75.2679 26.5193C74.6394 26.5193 74.3325 26.2815 74.1717 25.6571C74.1717 25.6571 74.1717 25.6571 73.631 24.3342C73.631 24.3342 73.631 24.3342 72.5787 24.3342H72.3887V22.6842H73.1633C73.1633 22.6842 73.1633 22.6842 72.5494 20.8855C72.5494 20.6477 72.4617 20.4247 72.3887 20.2612V17.749Z" fill="#ED1C24"/>
<path fill-rule="evenodd" clip-rule="evenodd" d="M42.4453 29.0166C42.4453 29.0166 42.4453 29.0166 49.2122 29.0166C49.8407 29.0166 50.2207 29.3436 50.2207 30.0423C50.2207 30.0423 50.2207 30.0423 50.2207 35.9882C50.2207 36.0625 50.2207 36.0625 50.3084 36.0625C50.3084 36.0625 50.3084 36.0625 50.9222 36.0625C50.9222 36.0625 50.9222 36.0625 50.9222 37.7869C50.9222 37.7869 50.9222 37.7869 49.2999 37.7869C48.5984 37.7869 48.2769 37.4747 48.2769 36.7761C48.2769 36.7761 48.2769 36.7761 48.2769 30.7558C48.2769 30.7558 48.2769 30.6666 48.2038 30.6666C48.2038 30.6666 48.2038 30.6666 45.0907 30.6666C45.0907 30.6666 45.0907 30.6666 45.0907 37.7869C45.0907 37.7869 45.0907 37.7869 43.2199 37.7869C43.2199 37.7869 43.2199 37.7869 43.2199 30.6666C43.2199 30.6666 43.2199 30.6666 42.4453 30.6666C42.4453 30.6666 42.4453 30.6666 42.4453 29.0166Z" fill="#ED1C24"/>
<path fill-rule="evenodd" clip-rule="evenodd" d="M55.8317 28.8672H55.861V30.6807L55.8317 30.6658C54.4141 30.6658 53.3325 31.8402 53.3325 33.3266C53.3325 34.8875 54.4141 36.151 55.8317 36.151L55.861 36.1361V37.9348L55.8317 37.9496C53.3325 37.9496 51.3887 35.9131 51.3887 33.3266C51.3887 30.8293 53.3325 28.8672 55.8317 28.8672Z" fill="#ED1C24"/>
<path fill-rule="evenodd" clip-rule="evenodd" d="M55.8613 28.8672L56.7529 28.9564C58.8429 29.3577 60.3336 31.1415 60.3336 33.3266C60.3336 35.5861 58.8429 37.4293 56.7529 37.8456L55.8613 37.9348V36.1361L56.8552 35.928C57.7759 35.4969 58.3898 34.501 58.3898 33.3266C58.3898 32.2118 57.7759 31.2753 56.8552 30.8739L55.8613 30.6807V28.8672Z" fill="#ED1C24"/>
<path fill-rule="evenodd" clip-rule="evenodd" d="M60.7285 29.0166C60.7285 29.0166 60.7285 29.0166 62.4385 29.0166C63.067 29.0166 63.3739 29.3436 63.3739 30.0423C63.3739 30.0423 63.3739 30.0423 63.3739 35.9882C63.3739 36.0625 63.3739 36.0625 63.447 36.0625C63.447 36.0625 63.447 36.0625 65.6977 36.0625C65.6977 36.0625 65.6977 36.0625 65.6977 29.0166C65.6977 29.0166 65.6977 29.0166 67.5685 29.0166C67.5685 29.0166 67.5685 29.0166 67.5685 36.0625C67.5685 36.0625 67.5685 36.0625 69.8339 36.0625C69.907 36.0625 69.907 36.0625 69.907 35.9882C69.907 35.9882 69.907 35.9882 69.907 30.0423C69.907 29.3436 70.2139 29.0166 70.8424 29.0166C70.8424 29.0166 70.8424 29.0166 72.5524 29.0166C72.5524 29.0166 72.5524 29.0166 72.5524 30.6666C72.5524 30.6666 72.5524 30.6666 71.8508 30.6666C71.7631 30.6666 71.7631 30.7558 71.7631 30.7558C71.7631 30.7558 71.7631 30.7558 71.7631 36.7761C71.7631 37.4747 71.4562 37.7869 70.8424 37.7869C70.8424 37.7869 70.8424 37.7869 62.5116 37.7869C61.8101 37.7869 61.5031 37.4747 61.5031 36.7761C61.5031 36.7761 61.5031 36.7761 61.5031 30.7558C61.5031 30.7558 61.5031 30.6666 61.4301 30.6666C61.4301 30.6666 61.4301 30.6666 60.7285 30.6666C60.7285 30.6666 60.7285 30.6666 60.7285 29.0166Z" fill="#ED1C24"/>
<path fill-rule="evenodd" clip-rule="evenodd" d="M74.0283 29.0166C74.0283 29.0166 74.0283 29.0166 79.8599 29.0166C80.5614 29.0166 80.7952 29.3436 80.7952 29.968C80.7952 29.968 80.7952 29.968 80.7952 31.4544H79.0852C79.0852 31.4544 79.0852 31.4544 79.0852 30.7558C79.0852 30.6666 79.0852 30.6666 78.9976 30.6666C78.9976 30.6666 78.9976 30.6666 77.916 30.6666C77.916 30.6666 77.916 30.6666 77.916 37.7869C77.916 37.7869 77.916 37.7869 76.0452 37.7869C76.0452 37.7869 76.0452 37.7869 76.0452 30.6666C76.0452 30.6666 76.0452 30.6666 74.9637 30.6666C74.876 30.6666 74.876 30.6666 74.876 30.7558C74.876 30.7558 74.876 30.7558 74.876 31.4544C74.876 31.4544 74.876 31.4544 73.166 31.4544C73.166 31.4544 73.166 31.4544 73.166 29.968C73.166 29.3436 73.3999 29.0166 74.0283 29.0166Z" fill="#ED1C24"/>
<path fill-rule="evenodd" clip-rule="evenodd" d="M83.2068 29.0166C83.2068 29.0166 83.2068 29.0166 83.9961 29.0166H84.1422V31.5288C84.0545 31.6923 83.9814 31.9153 83.9814 32.1531C83.9814 32.1531 83.9814 32.1531 83.353 33.9517C83.353 33.9517 83.353 33.9517 84.0107 33.9517H84.1422V35.6017H83.7184C83.4699 35.6017 83.2068 35.6017 82.8853 35.6017C82.8853 35.6017 82.8853 35.6017 82.3445 36.9247C82.1984 37.549 81.8768 37.7869 81.263 37.7869C81.263 37.7869 81.263 37.7869 80.0938 37.7869C80.0938 37.7869 80.0938 37.7869 80.0938 36.0625C80.0938 36.0625 80.0938 36.0625 80.4884 36.0625C80.6345 36.0625 80.6345 36.0625 80.7222 35.9882C80.7222 35.9882 80.7222 35.9882 83.2068 29.0315V29.0166Z" fill="#ED1C24"/>
<path fill-rule="evenodd" clip-rule="evenodd" d="M84.1406 29.0166H85.0614C85.0614 29.0166 85.0614 29.0166 87.5606 35.9882C87.6337 36.0625 87.6337 36.0625 87.7945 36.0625H88.1014C88.1014 36.0625 88.1014 36.0625 88.1014 37.7869C88.1014 37.7869 88.1014 37.7869 87.0199 37.7869C86.3914 37.7869 86.0845 37.549 85.9237 36.9247C85.9237 36.9247 85.9237 36.9247 85.3829 35.6017C85.3829 35.6017 85.3829 35.6017 84.3306 35.6017H84.1406V33.9517H84.9152C84.9152 33.9517 84.9152 33.9517 84.2868 32.1531C84.2868 31.9153 84.2137 31.6923 84.1406 31.5288V29.0166Z" fill="#ED1C24"/>
<path fill-rule="evenodd" clip-rule="evenodd" d="M30.4587 21.48C30.5463 21.4503 30.6633 21.5098 30.7802 21.6733C30.7802 21.6733 30.7802 21.6733 36.071 26.9057C36.3779 27.2179 36.3779 27.6935 36.071 27.9314C36.071 27.9314 36.071 27.9314 30.7802 33.253C30.6633 33.4016 30.5463 33.4462 30.4587 33.4016C30.371 33.357 30.3125 33.2084 30.3125 33.0152V21.8219C30.3125 21.6287 30.371 21.5098 30.4587 21.48Z" fill="#ED1C24"/>
<path fill-rule="evenodd" clip-rule="evenodd" d="M21.4117 12.7539H21.7917L22.1425 12.9026C22.1425 12.9026 22.1425 12.9026 27.594 18.3877C27.8279 18.6999 27.7402 18.9228 27.3602 18.9228C27.3602 18.9228 27.3602 18.9228 25.0948 18.9228C24.7148 18.9228 24.3932 19.2499 24.3932 19.6363C24.3932 19.6363 24.3932 19.6363 24.3932 23.7093C24.3932 24.0958 24.0863 24.408 23.6186 24.408C23.6186 24.408 23.6186 24.408 19.6579 24.408C19.2632 24.408 18.9563 24.0958 18.9563 23.7093C18.9563 23.7093 18.9563 23.7093 18.9563 19.6363C18.9563 19.2499 18.6494 18.9228 18.2548 18.9228H15.8432C15.4486 18.9228 15.3755 18.6999 15.6094 18.3877C15.6094 18.3877 15.6094 18.3877 21.0609 12.9026L21.4117 12.7539Z" fill="#ED1C24"/>
<path fill-rule="evenodd" clip-rule="evenodd" d="M12.891 21.3612C12.9787 21.4207 13.0372 21.5545 13.0372 21.7477V33.1639C13.0372 33.372 12.9787 33.491 12.891 33.5207C12.7887 33.5653 12.6572 33.5207 12.4964 33.4018C12.4964 33.4018 12.4964 33.4018 7.13254 27.9315C6.82561 27.6937 6.82561 27.218 7.13254 26.9058C7.13254 26.9058 7.13254 26.9058 12.4964 21.5099C12.6572 21.3612 12.7887 21.3166 12.891 21.3612Z" fill="#ED1C24"/>
<path fill-rule="evenodd" clip-rule="evenodd" d="M19.6575 30.3535C19.6575 30.3535 19.6575 30.3535 23.6183 30.3535C24.086 30.3535 24.4075 30.6657 24.4075 31.067C24.4075 31.067 24.4075 31.067 24.4075 35.363C24.4075 35.8387 24.7144 36.1508 25.0944 36.1508H27.199C27.5937 36.1508 27.7398 36.3738 27.4329 36.6116C27.4329 36.6116 27.4329 36.6116 22.1421 42.0076C21.9813 42.1711 21.7913 42.2454 21.6013 42.2454C21.4113 42.2454 21.2067 42.1711 21.0606 42.0076C21.0606 42.0076 21.0606 42.0076 15.7698 36.6116C15.4483 36.3738 15.609 36.1508 15.989 36.1508C15.989 36.1508 15.989 36.1508 18.2544 36.1508C18.649 36.1508 18.956 35.8387 18.956 35.363C18.956 35.363 18.956 35.363 18.956 31.067C18.956 30.6657 19.2629 30.3535 19.6575 30.3535Z" fill="#ED1C24"/>
</svg>
